<?xml version="1.0" encoding="UTF-8" standalone="no"?>
<svg width="58px" height="60px" viewBox="0 0 58 60" version="1.1" xmlns="http://www.w3.org/2000/svg" xmlns:xlink="http://www.w3.org/1999/xlink" xmlns:sketch="http://www.bohemiancoding.com/sketch/ns">
    <!-- Generator: Sketch 3.3.3 (12081) - http://www.bohemiancoding.com/sketch -->
    <title>Business Icon Mouseover</title>
    <desc>Created with Sketch.</desc>
    <defs></defs>
    <g id="Entrance-Page" stroke="none" stroke-width="1" fill="none" fill-rule="evenodd" sketch:type="MSPage">
        <g sketch:type="MSArtboardGroup" transform="translate(-1023.000000, -659.000000)" id="Consumers-+-Businesses" fill="#55A7F6">
            <g sketch:type="MSLayerGroup" transform="translate(612.000000, 659.000000)">
                <g id="Business-Icon-Mouseover" transform="translate(411.000000, 0.000000)" sketch:type="MSShapeGroup">
                    <path d="M4.911875,43.6720143 C4.911875,43.6720143 2.6081875,58.543672 3.3005625,59.3761141 C3.715625,59.8734403 21.122875,60.0766488 35.1171875,59.9714795 C35.2694375,56.9643494 35.86575,45.973262 36.46025,45.258467 C37.1508125,44.426025 45.9015625,43.973262 45.9795,44.8823529 C46.041125,45.6149733 47.2681875,55.912656 47.72675,59.7557932 C50.5488125,59.6559715 52.345,59.5294118 52.5045,59.3761141 C53.349125,58.543672 50.9693125,40.3493761 50.9693125,40.3493761 L4.911875,43.6720143 L4.911875,43.6720143 Z M27.9288125,55.9768271 C27.0986875,56.5811052 8.138125,56.8823529 7.5998125,56.3529412 C7.0633125,55.8235294 7.1394375,48.2762923 8.0601875,47.4456328 C8.9809375,46.6149733 28.1716875,44.1996435 28.6320625,44.8039216 C29.0924375,45.4081996 28.76075,55.3707665 27.9288125,55.9768271 L27.9288125,55.9768271 Z" id="Shape"></path>
                    <path d="M57.8314375,30.9893048 C57.4000625,28.2477718 54.09225,7.50623886 52.6585625,6.37789661 C52.3613125,6.14438503 50.4001875,6.09269162 47.4313125,6.17112299 C47.404125,10.315508 46.9564375,14.4884135 46.077375,15.3101604 C44.264875,17.0017825 12.8488125,19.3778966 10.733625,17.8930481 C9.3796875,16.9411765 8.5241875,12.8395722 8.4806875,9.30481283 C5.8,9.68092692 4.063625,10.026738 3.838875,10.3030303 C2.7568125,11.631016 0.609,30.9483066 0.1069375,35.5793226 C0.047125,35.8823529 0.0163125,36.1925134 0.00725,36.4991087 C0.0018125,36.5490196 0,36.5757576 0,36.5757576 L0.003625,36.5757576 C-0.010875,37.6827094 0.3063125,38.7967914 0.989625,39.771836 C2.7604375,42.2923351 6.30025,42.9055258 8.89575,41.1426025 C10.5125,40.0427807 11.3806875,38.2834225 11.378875,36.5008913 C11.5329375,37.1515152 11.806625,37.7896613 12.21625,38.3707665 C13.9870625,40.8912656 17.526875,41.5008913 20.122375,39.7397504 C21.5741875,38.7504456 22.4224375,37.2317291 22.5783125,35.6417112 C22.7450625,36.3511586 23.044125,37.0481283 23.4918125,37.684492 C25.4203125,40.426025 29.2755,41.0926916 32.103,39.171123 C33.6454375,38.1212121 34.557125,36.5222816 34.760125,34.8342246 C34.9033125,35.5525847 35.195125,36.258467 35.6464375,36.8983957 C37.4190625,39.4135472 40.95525,40.0285205 43.5489375,38.2655971 C44.8466875,37.3885918 45.6586875,36.0802139 45.92875,34.6809269 C46.0936875,35.2245989 46.3438125,35.7468806 46.6845625,36.2335116 C48.5333125,38.85918 52.33775,39.4135472 55.190625,37.4741533 C57.4435625,35.9411765 58.4205,33.3190731 57.8314375,30.9893048 L57.8314375,30.9893048 Z" id="Shape"></path>
                    <path d="M13.5158125,16.2139037 C15.279375,17.368984 41.47725,15.5222816 42.9906875,14.2032086 C44.5023125,12.8877005 44.5023125,0.497326203 42.9906875,0.0356506239 C41.47725,-0.426024955 13.5158125,3.73262032 12.2543125,5.83065954 C10.994625,7.93048128 11.75225,15.057041 13.5158125,16.2139037 L13.5158125,16.2139037 Z" id="Shape"></path>
                </g>
            </g>
        </g>
    </g>
</svg>