<?xml version="1.0" encoding="UTF-8" standalone="no"?>
<svg width="40px" height="40px" viewBox="0 0 40 40" version="1.1" xmlns="http://www.w3.org/2000/svg" xmlns:xlink="http://www.w3.org/1999/xlink" xmlns:sketch="http://www.bohemiancoding.com/sketch/ns">
    <!-- Generator: Sketch 3.3.3 (12081) - http://www.bohemiancoding.com/sketch -->
    <title>call round</title>
    <desc>Created with Sketch.</desc>
    <defs></defs>
    <g id="Search-Result-Page" stroke="none" stroke-width="1" fill="none" fill-rule="evenodd" sketch:type="MSPage">
        <g id="Desktop-HD-Product-PopUp-View" sketch:type="MSArtboardGroup" transform="translate(-715.000000, -881.000000)">
            <g id="Product-Popup-View" sketch:type="MSLayerGroup" transform="translate(345.000000, 237.000000)">
                <g id="Company-List-Look-@-Prodcut-Page-Copy" transform="translate(0.000000, 629.000000)" sketch:type="MSShapeGroup">
                    <g id="call-round" transform="translate(370.000000, 15.000000)">
                        <ellipse id="Oval-6" fill="#7ED321" cx="20" cy="19.9561404" rx="20" ry="19.9561404"></ellipse>
                        <path d="M14.7166775,11.9738811 C15.7374017,11.9459423 17.9358071,14.8994785 18.0072427,15.5750001 C18.0781752,16.2505217 15.8797698,17.3750607 15.851598,17.8255747 C15.8234262,18.2755899 21.4537589,24.070408 21.9784584,24.1267846 C22.5031579,24.1816645 23.4257839,21.6926118 24.1341031,21.6507035 C24.8429253,21.6087952 27.8210855,24.7169929 27.9926316,25.2518225 C28.1626684,25.7861531 25.3827168,29.7524728 20.3902739,26.9401276 C17.3497333,25.2258792 13.1898673,20.9632081 12.4619285,17.1784909 C11.9940756,14.7488082 14.3177449,11.9848571 14.7166775,11.9738811 L14.7166775,11.9738811 Z" id="call" fill="#FFFFFF"></path>
                    </g>
                </g>
            </g>
        </g>
    </g>
</svg>