<?xml version="1.0" encoding="UTF-8" standalone="no"?>
<svg width="19px" height="16px" viewBox="0 0 19 16" version="1.1" xmlns="http://www.w3.org/2000/svg" xmlns:xlink="http://www.w3.org/1999/xlink" xmlns:sketch="http://www.bohemiancoding.com/sketch/ns">
    <!-- Generator: Sketch 3.3.3 (12081) - http://www.bohemiancoding.com/sketch -->
    <title>catalog view</title>
    <desc>Created with Sketch.</desc>
    <defs></defs>
    <g id="Search-Result-Page" stroke="none" stroke-width="1" fill="none" fill-rule="evenodd" sketch:type="MSPage">
        <g id="catalog-view" sketch:type="MSLayerGroup" fill="#AAADAF">
            <path d="M18.9946562,3.20118519 L0.078375,3.87496296 C0.201875,7.23437037 0.47025,14.237037 0.572375,14.7407407 C0.70715625,15.4038519 1.2836875,15.4862222 1.2836875,15.4862222 C1.2836875,15.4862222 16.5721562,15.4293333 18.4353437,15.469037 C19.0130625,15.4814815 18.9851562,14.6168889 18.9851562,14.6168889 C18.9851562,14.6168889 19.0106875,6.75259259 18.9946562,3.20118519 L18.9946562,3.20118519 Z M17.624875,6.68622222 L17.6468437,7.17155556 L9.0333125,7.2242963 L8.99946875,6.7437037 L17.624875,6.68622222 L17.624875,6.68622222 Z M17.6070625,7.54844444 L17.6290313,8.03377778 L9.0166875,8.08592593 L8.98284375,7.60533333 L17.6070625,7.54844444 L17.6070625,7.54844444 Z M17.5506562,8.41185185 L17.572625,8.89659259 L8.95909375,8.94992593 L8.92525,8.46874074 L17.5506562,8.41185185 L17.5506562,8.41185185 Z M7.06028125,13.9354074 L2.15590625,13.9597037 L2.07753125,10.8888889 L7.09115625,10.7697778 L7.06028125,13.9354074 L7.06028125,13.9354074 Z M1.99559375,8.89007407 L1.7955,5.19111111 L7.4610625,4.88296296 L7.4919375,8.89896296 L1.99559375,8.89007407 L1.99559375,8.89007407 Z M7.9075625,13.9134815 L8.04946875,10.7164444 L12.7780937,10.6980741 L12.7780937,13.8648889 L7.9075625,13.9134815 L7.9075625,13.9134815 Z M17.9947812,13.9460741 L13.4799062,13.9253333 L13.5630312,10.7934815 L18.05475,10.7093333 L17.9947812,13.9460741 L17.9947812,13.9460741 Z" id="Shape" sketch:type="MSShapeGroup"></path>
            <path d="M0.06471875,3.49451852 L18.992875,2.89185185 C18.988125,2.20681481 18.9821875,1.72444444 18.9744687,1.55851852 C18.9251875,0.574814815 18.0636562,0.592592593 18.0636562,0.592592593 C18.0636562,0.592592593 1.3430625,1.08859259 0.59909375,1.12296296 C-0.14546875,1.15733333 0.01484375,2.10074074 0.01484375,2.10074074 C0.01484375,2.10074074 0.03325,2.64059259 0.06471875,3.49451852 L0.06471875,3.49451852 Z M4.1360625,1.71022222 C4.33971875,1.37007407 4.7250625,1.22488889 4.99640625,1.38666667 C5.26775,1.54844444 5.3235625,1.95555556 5.1205,2.2962963 C4.91684375,2.63585185 4.53090625,2.78103704 4.2595625,2.61925926 C3.98821875,2.45748148 3.93240625,2.05037037 4.1360625,1.71022222 L4.1360625,1.71022222 Z M2.538875,1.71437037 C2.74253125,1.37422222 3.12728125,1.22962963 3.39921875,1.39140741 C3.6705625,1.55259259 3.726375,1.9597037 3.5233125,2.30044444 C3.31965625,2.64 2.93371875,2.78518519 2.662375,2.62340741 C2.39103125,2.46162963 2.3358125,2.05451852 2.538875,1.71437037 L2.538875,1.71437037 Z M0.91853125,1.824 C1.1221875,1.48385185 1.50753125,1.33925926 1.77946875,1.50044444 C2.0508125,1.66162963 2.106625,2.06933333 1.90296875,2.40948148 C1.6993125,2.75022222 1.31396875,2.89481481 1.042625,2.73303704 C0.7706875,2.57125926 0.71546875,2.16414815 0.91853125,1.824 L0.91853125,1.824 Z" id="Shape" sketch:type="MSShapeGroup"></path>
        </g>
    </g>
</svg>