<?xml version="1.0" encoding="UTF-8" standalone="no"?>
<svg width="15px" height="19px" viewBox="0 0 15 19" version="1.1" xmlns="http://www.w3.org/2000/svg" xmlns:xlink="http://www.w3.org/1999/xlink" xmlns:sketch="http://www.bohemiancoding.com/sketch/ns">
    <!-- Generator: Sketch 3.3.3 (12081) - http://www.bohemiancoding.com/sketch -->
    <title>Categories Icon</title>
    <desc>Created with Sketch.</desc>
    <defs></defs>
    <g id="Company-Page" stroke="none" stroke-width="1" fill="none" fill-rule="evenodd" sketch:type="MSPage">
        <g id="Company-Page-for-Web" sketch:type="MSArtboardGroup" transform="translate(-586.000000, -193.000000)" fill="#D8D8D8">
            <g id="Company-Full-Page,-Company-Info" sketch:type="MSLayerGroup" transform="translate(199.000000, 105.000000)">
                <g id="Category-+-Industry-Chain" transform="translate(387.000000, 53.000000)" sketch:type="MSShapeGroup">
                    <g id="Category" transform="translate(0.000000, 33.000000)">
                        <g id="Categories-Icon" transform="translate(0.000000, 2.000000)">
                            <path d="M3.5922,8.12920588 C3.5676,8.12138235 3.5484,8.11467647 3.5418,8.10629412 C3.3588,7.8945 3.2694,6.92047059 3.495,6.64720588 C3.7212,6.37394118 10.5642,5.51894118 10.8024,5.84361765 C11.0004,6.11297059 11.0346,7.34294118 10.9032,7.87717647 C12.7182,7.83358824 14.1666,7.80844118 14.6778,7.7995 C14.4942,4.218 14.208,1.01929412 13.9212,0.752176471 C13.2564,0.133558824 1.707,1.13273529 1.0422,1.84691176 C0.759,2.15147059 0.6246,5.06070588 0.603,8.33876471 C1.3428,8.25941176 2.3922,8.18955882 3.5922,8.12920588 L3.5922,8.12920588 Z" id="Shape"></path>
                            <path d="M14.8758,14.1231471 C14.8632,12.3952647 14.7996,10.3158824 14.7036,8.31417647 C12.1626,8.26779412 3.2274,8.85455882 0.6,9.03170588 C0.597,10.6852647 0.6216,12.3913529 0.669,13.8733529 C1.3752,13.8403824 2.346,13.8297647 3.4548,13.8342353 C3.3378,13.4749118 3.3096,12.7775 3.495,12.5528529 C3.7212,12.2801471 10.5642,11.4240294 10.8024,11.7492647 C11.0358,12.0633235 11.04,13.6911765 10.8222,13.9845588 C12.5946,14.0387647 14.0958,14.0940882 14.8758,14.1231471 L14.8758,14.1231471 Z" id="Shape"></path>
                            <path d="M0.693,14.5651765 C0.7698,16.53 0.8904,17.9695294 1.0422,18.1243235 C1.1802,18.2662647 3.5496,18.4015 3.5418,18.392 C3.3588,18.1802059 3.2694,17.2067353 3.495,16.9334706 C3.7212,16.6613235 10.5642,15.8052059 10.8024,16.1298824 C11.0412,16.4534412 10.9374,18.2455882 10.698,18.4618529 C10.6794,18.4780588 14.3838,18.4629706 14.6352,18.1243235 C14.7594,17.9572353 14.8794,16.5965 14.877,14.6316765 C11.8884,14.4707353 3.4164,14.5394706 0.693,14.5651765 L0.693,14.5651765 Z" id="Shape"></path>
                        </g>
                    </g>
                </g>
            </g>
        </g>
    </g>
</svg>