<?xml version="1.0" encoding="UTF-8" standalone="no"?>
<svg width="16px" height="16px" viewBox="0 0 16 16" version="1.1" xmlns="http://www.w3.org/2000/svg" xmlns:xlink="http://www.w3.org/1999/xlink" xmlns:sketch="http://www.bohemiancoding.com/sketch/ns">
    <!-- Generator: Sketch 3.3.3 (12081) - http://www.bohemiancoding.com/sketch -->
    <title>Saat - Acik</title>
    <desc>Created with Sketch.</desc>
    <defs></defs>
    <g id="Search-Result-Page" stroke="none" stroke-width="1" fill="none" fill-rule="evenodd" sketch:type="MSPage">
        <g id="Desktop-HD" sketch:type="MSArtboardGroup" transform="translate(-1267.000000, -188.000000)" fill="#7ED321">
            <g id="Company-Map-View" sketch:type="MSLayerGroup" transform="translate(924.000000, 146.000000)">
                <g id="Open-until-22.00-+-Saat---Acik" transform="translate(343.000000, 42.000000)" sketch:type="MSShapeGroup">
                    <g id="Saat---Acik" transform="translate(0.000000, 0.492924)">
                        <path d="M15.9674134,7.05755605 C15.877191,5.9750338 15.5566897,4.95615244 15.0489036,4.04605626 L13.5069797,4.90348411 L13.2460839,4.46865689 L14.7867049,3.61154254 C14.1430966,2.61711434 13.2701866,1.77442108 12.2383288,1.15117919 L11.3377332,2.64156749 L10.8872725,2.38919841 L11.789171,0.896615597 C10.8374385,0.401596007 9.770078,0.0880940499 8.63529497,0 L8.63529497,2.26818666 L7.33244419,2.26818666 L7.33244419,0 C6.1986383,0.0880940499 5.12997494,0.401596007 4.17824245,0.896615597 L5.08176947,2.38919841 L4.63130881,2.64156749 L3.72908464,1.15117919 C2.69722683,1.77442108 1.82464252,2.61711434 1.18070852,3.61279655 L2.72132957,4.46865689 L2.46075941,4.90348411 L0.9185098,4.04605626 C0.412352272,4.95615244 0.0902224165,5.9750338 0,7.05755605 L2.3347086,7.05755605 L2.3347086,8.31156388 L0,8.31156388 C0.0902224165,9.39408614 0.412352272,10.4142215 0.9185098,11.3240042 L2.46075941,10.4656358 L2.72132957,10.900463 L1.18070852,11.7575774 C1.82464252,12.7520056 2.69722683,13.5943854 3.72908464,14.2191948 L4.63000596,12.7288065 L5.08046662,12.980862 L4.17824245,14.4725043 C5.12997494,14.9684644 6.19733545,15.2807124 7.33244419,15.3691199 L7.33244419,13.1009333 L8.63529497,13.1009333 L8.63529497,15.3691199 C9.76877515,15.2807124 10.8374385,14.9684644 11.789171,14.4725043 L10.8859697,12.980862 L11.3364303,12.7288065 L12.2383288,14.2191948 C13.2701866,13.5943854 14.1430966,12.7520056 14.7867049,11.7575774 L13.2460839,10.900463 L13.5069797,10.4656358 L15.0489036,11.3240042 C15.5553869,10.4142215 15.877191,9.39408614 15.9674134,8.31156388 L13.6327048,8.31156388 L13.6327048,7.05755605 L15.9674134,7.05755605 Z M7.87362716,8.12344299 L5.11465945,6.62796626 L7.5914507,7.16676361 L11.48707,4.44895577 L7.87362716,8.12344299 Z" id="Fill-1"></path>
                    </g>
                </g>
            </g>
        </g>
    </g>
</svg>