<?xml version="1.0" encoding="UTF-8" standalone="no"?>
<svg width="16px" height="20px" viewBox="0 0 16 20" version="1.1" xmlns="http://www.w3.org/2000/svg" xmlns:xlink="http://www.w3.org/1999/xlink" xmlns:sketch="http://www.bohemiancoding.com/sketch/ns">
    <!-- Generator: Sketch 3.3.3 (12081) - http://www.bohemiancoding.com/sketch -->
    <title>closed icon</title>
    <desc>Created with Sketch.</desc>
    <defs>
        <path id="path-1" d="M0.0273529412,0.0586363636 L15.5,0.0586363636 L15.5,19.6040909 L0.0273529412,19.6040909 L0.0273529412,0.0586363636 Z"></path>
    </defs>
    <g id="Company-Page" stroke="none" stroke-width="1" fill="none" fill-rule="evenodd" sketch:type="MSPage">
        <g id="Company-Page-for-Web" sketch:type="MSArtboardGroup" transform="translate(-490.000000, -1025.000000)">
            <g id="Group-Copy-4" sketch:type="MSLayerGroup" transform="translate(315.000000, 833.000000)">
                <g id="Sunday-+-urun-2" transform="translate(4.000000, 192.000000)">
                    <g id="urun-2" transform="translate(171.000000, 0.000000)">
                        <g id="Open-All-day-+-24-hours">
                            <g id="closed-icon">
                                <g id="Group-4">
                                    <mask id="mask-2" sketch:name="Clip 2" fill="white">
                                        <use xlink:href="#path-1"></use>
                                    </mask>
                                    <g id="Clip-2"></g>
                                    <path id="Fill-1" fill="#D0011B" sketch:type="MSShapeGroup" mask="url(#mask-2)" d="M6.541,13.0590909 L6.34497059,13.3504545 L6.34497059,13.3540909 L6.63536765,13.3540909 L6.63536765,13.0645455 C6.63536765,13.0040909 6.63855882,12.9422727 6.64220588,12.88 L6.63536765,12.88 C6.603,12.9454545 6.57473529,13.0004545 6.541,13.0590909 L6.541,13.0590909 Z"></path>
                                    <path d="M15.2027647,17.3331818 L15.2027647,9.36772727 C15.2027647,8.23136364 14.3443382,7.29772727 13.2383676,7.16954545 C13.2456618,6.95136364 13.3131324,3.63090909 11.3418971,1.59272727 C10.3571912,0.575454545 9.05336765,0.0586363636 7.47054412,0.0586363636 C3.09863235,0.0586363636 1.88780882,4.69636364 1.84495588,7.18909091 C0.797794118,7.36681818 0,8.27227273 0,9.36590909 L0,17.3331818 C0,18.5545455 0.993823529,19.5454545 2.21877941,19.5454545 L12.9835294,19.5454545 C14.2089412,19.5454545 15.2027647,18.5563636 15.2027647,17.3331818 L15.2027647,17.3331818 Z M7.47054412,1.67590909 C8.61025,1.67590909 9.49329412,2.015 10.1702794,2.71136364 C11.5306324,4.11045455 11.64825,6.62272727 11.6569118,7.15545455 L3.46014706,7.15545455 C3.46197059,6.92090909 3.52761765,1.67590909 7.47054412,1.67590909 L7.47054412,1.67590909 Z M7.60047059,18.205 C4.87383824,18.205 2.65323529,15.9922727 2.65323529,13.2722727 C2.65323529,10.5522727 4.87383824,8.34 7.60047059,8.34 C10.3284706,8.34 12.5490735,10.5522727 12.5490735,13.2722727 C12.5490735,15.9922727 10.3284706,18.205 7.60047059,18.205 L7.60047059,18.205 Z" id="Fill-3" fill="#D0011B" sketch:type="MSShapeGroup" mask="url(#mask-2)"></path>
                                </g>
                                <path d="M12.062723,12.9020324 C12.012353,12.2777232 11.8334213,11.6901167 11.5499309,11.1652486 L10.6890949,11.659742 L10.5434401,11.4089696 L11.4035488,10.914657 C11.0442307,10.3411531 10.5568963,9.8551574 9.98082352,9.49572306 L9.4780327,10.3552557 L9.22654636,10.2097101 L9.73006455,9.34891185 C9.19872467,9.06342552 8.60283116,8.88262354 7.96929654,8.83181818 L7.96929654,10.1399205 L7.24193187,10.1399205 L7.24193187,8.83181818 C6.60894277,8.88262354 6.0123219,9.06342552 5.48098201,9.34891185 L5.98540941,10.2097101 L5.73392308,10.3552557 L5.23022305,9.49572306 C4.65415023,9.8551574 4.16699774,10.3411531 3.80749776,10.9153802 L4.66760648,11.4089696 L4.52213354,11.659742 L3.66111562,11.1652486 C3.37853445,11.6901167 3.19869353,12.2777232 3.14832353,12.9020324 L4.45176101,12.9020324 L4.45176101,13.6252403 L3.14832353,13.6252403 C3.19869353,14.2495496 3.37853445,14.8378792 3.66111562,15.3625666 L4.52213354,14.8675307 L4.66760648,15.1183031 L3.80749776,15.6126157 C4.16699774,16.1861196 4.65415023,16.6719345 5.23022305,17.0322729 L5.73319571,16.1727403 L5.98468205,16.318105 L5.48098201,17.1783609 C6.0123219,17.4643896 6.60821541,17.6444684 7.24193187,17.6954545 L7.24193187,16.3873522 L7.96929654,16.3873522 L7.96929654,17.6954545 C8.6021038,17.6444684 9.19872467,17.4643896 9.73006455,17.1783609 L9.225819,16.318105 L9.47730533,16.1727403 L9.98082352,17.0322729 C10.5568963,16.6719345 11.0442307,16.1861196 11.4035488,15.6126157 L10.5434401,15.1183031 L10.6890949,14.8675307 L11.5499309,15.3625666 C11.832694,14.8378792 12.012353,14.2495496 12.062723,13.6252403 L10.7592856,13.6252403 L10.7592856,12.9020324 L12.062723,12.9020324 Z M10.5144326,14.3811648 C10.5144326,14.5471113 10.3986551,14.6821895 10.2565009,14.6821895 C10.1141133,14.6821895 9.99926947,14.5471113 9.99926947,14.3811648 L9.99926947,13.5136007 C9.99926947,13.4103192 9.98199622,13.3276941 9.94651602,13.2643326 C9.90076524,13.1745126 9.81416555,13.1301828 9.68648353,13.1301828 C9.55436648,13.1301828 9.45399487,13.1745126 9.38560212,13.2624759 C9.31720937,13.3513676 9.28266286,13.4783225 9.28266286,13.6424123 L9.28266286,14.3811648 C9.28266286,14.5471113 9.16945302,14.6812612 9.03103357,14.6812612 C8.89144701,14.6812612 8.77847059,14.5471113 8.77847059,14.3811648 L8.77847059,12.3974648 C8.77847059,12.2315182 8.89144701,12.0973684 9.03103357,12.0973684 C9.16945302,12.0973684 9.28266286,12.2315182 9.28266286,12.3974648 L9.28266286,12.7121831 C9.28266286,12.8781297 9.32281151,12.9442762 9.39283821,12.8781297 C9.43672161,12.8354246 9.48410635,12.8026994 9.53522584,12.779258 C9.63092901,12.7346961 9.73223431,12.7131115 9.83797463,12.7131115 C9.95631976,12.7131115 10.0639275,12.7339999 10.1607977,12.7746162 C10.2581349,12.8163929 10.3374985,12.8790581 10.3995888,12.9633079 C10.4532759,13.0347925 10.4852548,13.1092944 10.4971593,13.1844926 C10.5090639,13.2596908 10.5144326,13.3838606 10.5144326,13.5553774 L10.5144326,14.3811648 Z M8.26309783,14.1073073 C8.18587893,14.1073073 8.12329335,14.2320038 8.12329335,14.3851152 C8.12329335,14.5384614 8.01613242,14.6631579 7.88510792,14.6631579 C7.75318291,14.6631579 7.64669737,14.5384614 7.64669737,14.3851152 C7.64669737,14.2320038 7.51657339,14.1073073 7.35560687,14.1073073 L6.95825595,14.1073073 C6.79728943,14.1073073 6.66716544,14.0082076 6.66716544,13.8860943 C6.66716544,13.7632764 6.73470384,13.5476994 6.81845146,13.4046858 L7.42607193,12.3570941 C7.50959442,12.2138458 7.69960245,12.0973684 7.84998795,12.0973684 C8.00104884,12.0973684 8.12329335,12.2340414 8.12329335,12.401008 L8.12329335,13.4063297 C8.12329335,13.5742355 8.18587893,13.7099692 8.26309783,13.7099692 C8.34054187,13.7099692 8.40312745,13.7989711 8.40312745,13.9091079 C8.40312745,14.0192448 8.34054187,14.1073073 8.26309783,14.1073073 Z M6.22354623,14.6631579 L5.06619231,14.6631579 C4.89871446,14.6631579 4.76238983,14.5451265 4.79541693,14.4054869 C4.81556112,14.3199838 4.84484047,14.2384306 4.88231803,14.161292 C4.95446233,13.9907505 5.124751,13.8109152 5.39365249,13.6203921 C5.62718454,13.4551945 5.77803173,13.3362337 5.84666251,13.2646714 C5.95183391,13.1529133 6.00406826,13.0313966 6.00406826,12.8977981 C6.00406826,12.7899898 5.97385198,12.7000722 5.91435635,12.6282775 C5.85392379,12.5576445 5.76702269,12.5211663 5.65459001,12.5211663 C5.50069778,12.5211663 5.39552637,12.5783233 5.34071544,12.6919401 C5.32150819,12.7300448 5.30768834,12.7816254 5.29761624,12.8462174 C5.28496757,12.9342763 5.17323759,13.0058387 5.0378499,13.0058387 C4.90246221,13.0058387 4.79260611,12.8824633 4.8228224,12.7353887 C4.84202965,12.637339 4.87224593,12.5520682 4.91066043,12.4795765 C5.04604812,12.2244613 5.28590451,12.0973684 5.63069807,12.0973684 C5.90334732,12.0973684 6.1202487,12.1717189 6.28140221,12.3215817 C6.44232149,12.4712121 6.52289824,12.6691703 6.52289824,12.9161534 C6.52289824,13.1048178 6.46621343,13.2728034 6.35260958,13.4196457 C6.27765446,13.516766 6.15491544,13.625736 5.98392407,13.7456262 L5.78084254,13.8880539 C5.65365307,13.9770421 5.56768892,14.0423312 5.52013926,14.0822946 C5.49718426,14.1013469 5.47516619,14.1231873 5.45595894,14.1466542 C5.42293184,14.1847589 5.53840957,14.2212371 5.70565319,14.2212371 L6.22354623,14.2212371 C6.39102408,14.2212371 6.52641176,14.3199838 6.52641176,14.4417328 C6.52641176,14.5641788 6.39102408,14.6631579 6.22354623,14.6631579 Z M7.60428734,12.8878523 L7.28744013,13.4316609 C7.20877613,13.5660879 7.27210175,13.6750239 7.42877239,13.6750239 L7.46295508,13.6750239 C7.61962572,13.6750239 7.74627696,13.5490939 7.74627696,13.3933154 L7.74627696,12.9253263 C7.74627696,12.7704193 7.68295134,12.7534253 7.60428734,12.8878523 Z" id="Fill-5" fill="#D0011B" sketch:type="MSShapeGroup"></path>
                            </g>
                        </g>
                    </g>
                </g>
            </g>
        </g>
    </g>
</svg>