<?xml version="1.0" encoding="UTF-8" standalone="no"?>
<svg width="26px" height="17px" viewBox="0 0 26 17" version="1.1" xmlns="http://www.w3.org/2000/svg" xmlns:xlink="http://www.w3.org/1999/xlink" xmlns:sketch="http://www.bohemiancoding.com/sketch/ns">
    <!-- Generator: Sketch 3.3.3 (12081) - http://www.bohemiancoding.com/sketch -->
    <title>Distance</title>
    <desc>Created with Sketch.</desc>
    <defs></defs>
    <g id="Search-Result-Page" stroke="none" stroke-width="1" fill="none" fill-rule="evenodd" sketch:type="MSPage">
        <g id="Desktop-HD" sketch:type="MSArtboardGroup" transform="translate(-1314.000000, -156.000000)">
            <g id="Company-Map-View" sketch:type="MSLayerGroup" transform="translate(924.000000, 146.000000)">
                <g id="170-m-+-Distance-2" transform="translate(390.000000, 10.000000)" sketch:type="MSShapeGroup">
                    <g id="Distance" transform="translate(0.000000, 0.492924)">
                        <g>
                            <path d="M9.59372971,5.03024824 C9.59372971,2.47442507 7.44184132,0.394983147 4.79683304,0.394983147 C2.15188839,0.394983147 0,2.47442507 0,5.03024824 C0,5.77903177 0.184880193,6.48693343 0.512714893,7.11368614 L4.79683304,15.650556 L9.08152378,7.11251809 C9.40884952,6.48601128 9.59372971,5.77853995 9.59372971,5.03024824 L9.59372971,5.03024824 Z M4.79683304,7.59516993 C3.33312396,7.59516993 2.14221813,6.44469909 2.14221813,5.03024824 C2.14221813,3.6157974 3.33312396,2.46501917 4.79683304,2.46501917 C6.26060575,2.46501917 7.4512571,3.6157974 7.4512571,5.03024824 C7.4512571,6.44445318 6.26035127,7.59516993 4.79683304,7.59516993 L4.79683304,7.59516993 Z" id="Fill-1" fill="#AAADB0"></path>
                            <path d="M22.5240189,0.526358384 C20.9176098,0.526358384 19.6106607,1.78926971 19.6106607,3.34155082 C19.6106607,3.79641529 19.723014,4.22625884 19.9220814,4.60685973 L22.5240189,9.79178603 L25.1262108,4.60612201 C25.3250238,4.22576703 25.437377,3.79592348 25.437377,3.34155082 C25.437377,1.78926971 24.130428,0.526358384 22.5240189,0.526358384 L22.5240189,0.526358384 Z M22.5240189,4.89936482 C21.6350543,4.89936482 20.9116295,4.20056167 20.9116295,3.34155082 C20.9116295,2.48253997 21.6350543,1.78349092 22.5240189,1.78349092 C23.4129834,1.78349092 24.1361538,2.48253997 24.1361538,3.34155082 C24.1361538,4.20056167 23.4129834,4.89936482 22.5240189,4.89936482 L22.5240189,4.89936482 Z" id="Fill-4" fill="#AAADB0"></path>
                            <path d="M12.7322396,8.37155639 L12.2344754,8.36319559 L9.8489738,13.1417624 L6.74997205,13.0764743 L5.45841912,15.650556 L10.6116523,15.5417427 L11.522693,15.522562 L13.324925,9.91400127 L21.9519464,9.76824053 L21.3239517,8.51688679 L12.7322396,8.37155639 Z" id="Fill-5" fill="#E7B121"></path>
                        </g>
                    </g>
                </g>
            </g>
        </g>
    </g>
</svg>