<?xml version="1.0" encoding="UTF-8" standalone="no"?>
<svg width="31px" height="19px" viewBox="0 0 31 19" version="1.1" xmlns="http://www.w3.org/2000/svg" xmlns:xlink="http://www.w3.org/1999/xlink" xmlns:sketch="http://www.bohemiancoding.com/sketch/ns">
    <!-- Generator: Sketch 3.3.3 (12081) - http://www.bohemiancoding.com/sketch -->
    <title>distance white</title>
    <desc>Created with Sketch.</desc>
    <defs></defs>
    <g id="Company-Page" stroke="none" stroke-width="1" fill="none" fill-rule="evenodd" sketch:type="MSPage">
        <g id="Company-Page-for-Web" sketch:type="MSArtboardGroup" transform="translate(-1110.000000, -899.000000)">
            <g id="map-2-+-Rectangle-3-+-ROUTE-+-170-m-+-Distance-+-170-m-+-Distance" sketch:type="MSLayerGroup" transform="translate(751.000000, 833.000000)">
                <g id="Rectangle-3-+-ROUTE-+-170-m-+-Distance-+-170-m-+-Distance" transform="translate(348.000000, 55.000000)" sketch:type="MSShapeGroup">
                    <g id="ROUTE-+-170-m-+-Distance-+-170-m-+-Distance" transform="translate(11.000000, 10.500000)">
                        <g id="distance-white">
                            <path d="M11.4982713,6.21862 C11.4982713,3.058996 8.91919125,0.488296 5.7490975,0.488296 C2.57908,0.488296 0,3.058996 0,6.21862 C0,7.1443 0.2215825,8.01944 0.61449875,8.79426 L5.7490975,19.347924 L10.8843825,8.792816 C11.2766888,8.0183 11.4982713,7.143692 11.4982713,6.21862 L11.4982713,6.21862 Z M5.7490975,9.389492 C3.99481375,9.389492 2.56749,7.967228 2.56749,6.21862 C2.56749,4.470012 3.99481375,3.047368 5.7490975,3.047368 C7.5034575,3.047368 8.93047625,4.470012 8.93047625,6.21862 C8.93047625,7.966924 7.5031525,9.389492 5.7490975,9.389492 L5.7490975,9.389492 Z" id="Fill-1" fill="#F3F3F3"></path>
                            <path d="M26.9954738,0.650708 C25.0701613,0.650708 23.5037575,2.211976 23.5037575,4.130976 C23.5037575,4.6933 23.638415,5.224692 23.8770013,5.695208 L26.9954738,12.105048 L30.1142513,5.694296 C30.3525325,5.224084 30.48719,4.692692 30.48719,4.130976 C30.48719,2.211976 28.9207863,0.650708 26.9954738,0.650708 L26.9954738,0.650708 Z M26.9954738,6.056816 C25.9300325,6.056816 25.0629938,5.192924 25.0629938,4.130976 C25.0629938,3.069028 25.9300325,2.204832 26.9954738,2.204832 C28.060915,2.204832 28.9276488,3.069028 28.9276488,4.130976 C28.9276488,5.192924 28.060915,6.056816 26.9954738,6.056816 L26.9954738,6.056816 Z" id="Fill-4" fill="#F3F3F3"></path>
                            <path d="M15.2598362,10.349296 L14.6632562,10.33896 L11.8041862,16.24644 L8.0899725,16.165728 L6.54202125,19.347924 L12.7182712,19.213404 L13.8101712,19.189692 L15.9701812,12.256136 L26.3098337,12.07594 L25.55717,10.52896 L15.2598362,10.349296 Z" id="Fill-5" fill="#E7B121"></path>
                        </g>
                    </g>
                </g>
            </g>
        </g>
    </g>
</svg>