<?xml version="1.0" encoding="UTF-8" standalone="no"?>
<svg width="20px" height="20px" viewBox="0 0 20 20" version="1.1" xmlns="http://www.w3.org/2000/svg" xmlns:xlink="http://www.w3.org/1999/xlink" xmlns:sketch="http://www.bohemiancoding.com/sketch/ns">
    <!-- Generator: Sketch 3.3.3 (12081) - http://www.bohemiancoding.com/sketch -->
    <title>dolu</title>
    <desc>Created with Sketch.</desc>
    <defs></defs>
    <g id="Entrance-Page" stroke="none" stroke-width="1" fill="none" fill-rule="evenodd" sketch:type="MSPage">
        <g sketch:type="MSArtboardGroup" transform="translate(-85.000000, -344.000000)" id="Side-Menu" fill="#55A7F6">
            <g sketch:type="MSLayerGroup">
                <g id="Keep-me-signed-in-+-dolu" transform="translate(85.000000, 344.000000)" sketch:type="MSShapeGroup">
                    <path d="M20,5.52125 L16.964375,0.323125 C16.964375,0.323125 16.56625,0.79875 15.935625,1.603125 C13.475625,1.850625 3.9975,2.829375 0,3.57125 C0,3.57125 0.77875,14.75625 0.894375,20 C0.894375,20 9.841875,19.416875 16.765,19.440625 L16.618125,8.269375 C17.659375,7.326875 18.79375,6.386875 20,5.52125 L20,5.52125 Z M3.241875,17.206875 L2.570625,5.806875 L14.135,3.98625 C12.821875,5.79 11.278125,8.061875 10.016875,10.3525 C10.016875,10.3525 7.71625,7.454375 6.151875,6.07375 L4.95625,8.3275 C4.95625,8.3275 7.440625,11.17875 10.154375,15.36625 C10.154375,15.36625 11.76,13.136875 14.350625,10.46375 L14.081875,16.535625 L3.241875,17.206875 L3.241875,17.206875 Z" id="dolu"></path>
                </g>
            </g>
        </g>
    </g>
</svg>