<?xml version="1.0" encoding="UTF-8" standalone="no"?>
<svg width="30px" height="30px" viewBox="0 0 30 30" version="1.1" xmlns="http://www.w3.org/2000/svg" xmlns:xlink="http://www.w3.org/1999/xlink" xmlns:sketch="http://www.bohemiancoding.com/sketch/ns">
    <!-- Generator: Sketch 3.3.3 (12081) - http://www.bohemiancoding.com/sketch -->
    <title>facebook</title>
    <desc>Created with Sketch.</desc>
    <defs></defs>
    <g id="Entrance-Page" stroke="none" stroke-width="1" fill="none" fill-rule="evenodd" sketch:type="MSPage">
        <g sketch:type="MSArtboardGroup" transform="translate(-40.000000, -550.000000)" id="Side-Menu" fill="#405D9B">
            <g sketch:type="MSLayerGroup">
                <g id="facebook" transform="translate(40.000000, 550.000000)" sketch:type="MSShapeGroup">
                    <path d="M27.6345455,0.977272727 C25.4381818,-1.11454545 3.58090909,0.47 1.80272727,2.75454545 C0.0254545455,5.04 1.17545455,26.7045455 2.84818182,27.9590909 C4.52181818,29.2145455 27.3209091,29.6327273 29.0990909,27.9590909 C30.8772727,26.2854545 29.8309091,3.06909091 27.6345455,0.977272727 L27.6345455,0.977272727 Z M18.4118182,13.0918182 L23.0863636,12.8463636 L23.0863636,16.0372727 L18.4818182,16.0372727 C18.6081818,20.7936364 18.7981818,26.4418182 18.7981818,26.4418182 L14.8863636,26.4418182 L14.5554545,16.0372727 L12.1045455,16.0372727 L12.1045455,13.4236364 L14.4690909,13.2990909 L14.4163636,11.6454545 C14.4163636,11.6454545 13.9618182,8.39090909 15.2945455,6.41636364 C16.7481818,4.26454545 18.7709091,3.01818182 23.0854545,5.37090909 L23.2009091,9.13636364 C23.2009091,9.13636364 18.3272727,6.36454545 18.3772727,11.1754545 C18.3863636,11.7127273 18.3963636,12.3654545 18.4118182,13.0918182 L18.4118182,13.0918182 Z" id="Shape"></path>
                </g>
            </g>
        </g>
    </g>
</svg>