<?xml version="1.0" encoding="UTF-8" standalone="no"?>
<svg width="30px" height="30px" viewBox="0 0 30 30" version="1.1" xmlns="http://www.w3.org/2000/svg" xmlns:xlink="http://www.w3.org/1999/xlink" xmlns:sketch="http://www.bohemiancoding.com/sketch/ns">
    <!-- Generator: Sketch 3.3.3 (12081) - http://www.bohemiancoding.com/sketch -->
    <title>google +</title>
    <desc>Created with Sketch.</desc>
    <defs></defs>
    <g id="Entrance-Page" stroke="none" stroke-width="1" fill="none" fill-rule="evenodd" sketch:type="MSPage">
        <g sketch:type="MSArtboardGroup" transform="translate(-175.000000, -550.000000)" id="Side-Menu" fill="#E6423E">
            <g sketch:type="MSLayerGroup">
                <g id="google-+" transform="translate(175.000000, 550.000000)" sketch:type="MSShapeGroup">
                    <path d="M10.3064256,13.9938355 C10.7685428,15.0224915 12.1586082,15.4001996 13.4112236,14.8374702 C14.6638391,14.2747407 15.3046646,12.9846679 14.8425475,11.9560118 C14.3804303,10.9273558 12.9903649,10.5496476 11.7377495,11.1123771 C10.485134,11.6751065 9.8443085,12.9651794 10.3064256,13.9938355 L10.3064256,13.9938355 Z" id="Oval"></path>
                    <path d="M27.6345455,1.88545455 C25.4381818,-0.206363636 3.58090909,1.37818182 1.80272727,3.66272727 C0.0254545455,5.94818182 1.17545455,27.6127273 2.84818182,28.8672727 C4.52181818,30.1227273 27.3209091,30.5418182 29.0990909,28.8672727 C30.8763636,27.1936364 29.8309091,3.97727273 27.6345455,1.88545455 L27.6345455,1.88545455 Z M16.55,10.2281818 C16.4609091,10.2681818 16.3718182,10.3027273 16.2827273,10.3327273 C16.4763636,10.5581818 16.6409091,10.8118182 16.7645455,11.0936364 C17.6172727,12.9936364 16.4345455,15.3763636 14.12,16.4163636 C12.8090909,17.0036364 11.4154545,17.0363636 10.2990909,16.6063636 C9.84181818,17.1372727 9.63454545,17.7990909 9.76818182,18.4072727 C9.99363636,18.2718182 10.23,18.1445455 10.4781818,18.0327273 C13.0890909,16.86 15.9863636,17.6472727 16.95,19.7918182 C17.9145455,21.9345455 16.5772727,24.6236364 13.9654545,25.7963636 C11.3545455,26.9690909 8.45727273,26.1818182 7.49454545,24.0363636 C6.89636364,22.7090909 7.18454545,21.1690909 8.11363636,19.9090909 C8.05636364,19.8127273 8.00272727,19.71 7.95545455,19.6036364 C7.36363636,18.2863636 7.75272727,16.7363636 8.82,15.5627273 C8.64636364,15.3509091 8.49909091,15.1154545 8.38363636,14.8581818 C7.53,12.9572727 8.71454545,10.5736364 11.0290909,9.53636364 C11.82,9.18090909 12.64,9.02818182 13.4118182,9.05818182 C13.2227273,8.12909091 13.8363636,7.08545455 14.9190909,6.59909091 C16.14,6.05 17.4954545,6.41909091 17.9463636,7.42090909 C18.3963636,8.42181818 17.7709091,9.67909091 16.55,10.2281818 L16.55,10.2281818 Z M24.9245455,11.9309091 C24.6636364,12.0745455 23.3945455,12.1136364 23.3945455,12.1136364 C23.3945455,12.1136364 23.1145455,13.6972727 22.97,13.7645455 C22.8227273,13.8318182 21.3190909,14.1063636 21.1763636,13.9036364 C21.0363636,13.7 21.0445455,12.2954545 21.0445455,12.2954545 C21.0445455,12.2954545 19.5190909,12.3090909 19.4018182,12.1136364 C19.2836364,11.9190909 19.4054545,10.6036364 19.5281818,10.4363636 C19.6509091,10.2681818 21.28,10.0818182 21.28,10.0818182 C21.28,10.0818182 21.4527273,8.35272727 21.7018182,8.21363636 C21.9481818,8.07454545 23.5445455,7.85181818 23.6336364,8.03454545 C23.72,8.21727273 23.5154545,9.88090909 23.5154545,9.88090909 C23.5154545,9.88090909 25.2063636,9.85363636 25.3645455,10.0481818 C25.5281818,10.2445455 25.1854545,11.7872727 24.9245455,11.9309091 L24.9245455,11.9309091 Z" id="Shape"></path>
                    <path d="M13.16574,24.0180573 C14.5791116,23.383419 15.3024252,21.9281245 14.7813062,20.767566 C14.2601872,19.6070075 12.6919727,19.1806649 11.2786011,19.8153031 C9.86522951,20.4499413 9.14191589,21.9052358 9.66303491,23.0657944 C10.1841539,24.2263529 11.7523684,24.6526955 13.16574,24.0180573 L13.16574,24.0180573 Z" id="Oval"></path>
                </g>
            </g>
        </g>
    </g>
</svg>