<?xml version="1.0" encoding="UTF-8" standalone="no"?>
<svg width="18px" height="19px" viewBox="0 0 18 19" version="1.1" xmlns="http://www.w3.org/2000/svg" xmlns:xlink="http://www.w3.org/1999/xlink" xmlns:sketch="http://www.bohemiancoding.com/sketch/ns">
    <!-- Generator: Sketch 3.3.3 (12081) - http://www.bohemiancoding.com/sketch -->
    <title>Industry Chains Icon</title>
    <desc>Created with Sketch.</desc>
    <defs></defs>
    <g id="Company-Page" stroke="none" stroke-width="1" fill="none" fill-rule="evenodd" sketch:type="MSPage">
        <g id="Company-Page-for-Web" sketch:type="MSArtboardGroup" transform="translate(-630.000000, -160.000000)" fill="#D8D8D8">
            <g id="Company-Full-Page,-Company-Info" sketch:type="MSLayerGroup" transform="translate(199.000000, 105.000000)">
                <g id="Category-+-Industry-Chain" transform="translate(387.000000, 53.000000)" sketch:type="MSShapeGroup">
                    <g id="Industry-Chain" transform="translate(44.000000, 0.000000)">
                        <g id="Industry-Chains-Icon" transform="translate(0.000000, 2.000000)">
                            <path d="M13.2318621,14.1049091 C13.5633103,13.8711515 13.7532414,10.4004848 13.2318621,10.2254545 C12.7104828,10.0492727 11.906069,10.2254545 11.5268276,10.5766667 C11.1494483,10.9278788 11.3846897,13.8112727 11.5268276,14.1049091 C11.6695862,14.3979697 12.9010345,14.3386667 13.2318621,14.1049091 L13.2318621,14.1049091 Z" id="Shape"></path>
                            <path d="M5.87917241,14.342697 C6.20255172,14.1141212 6.38565517,10.7344242 5.87917241,10.5645758 C5.37144828,10.3912727 4.58751724,10.5634242 4.2182069,10.9065758 C3.84889655,11.2491515 4.0797931,14.057697 4.2182069,14.3432727 C4.35662069,14.627697 5.5557931,14.570697 5.87917241,14.342697 L5.87917241,14.342697 Z" id="Shape"></path>
                            <path d="M13.8612414,13.2199697 C13.778069,13.772697 13.6768966,14.6438182 13.5415862,14.7393939 C13.0698621,15.0721818 11.3188966,15.1573939 11.1184138,14.7393939 C11.0563448,14.6138788 11.0004828,13.7813333 10.9421379,13.2763939 L6.5997931,13.3788788 C6.51786207,14.0939697 6.40055172,15.0681515 6.23793103,15.1821515 C5.76682759,15.5143636 4.01710345,15.599 3.81475862,15.1821515 C3.74151724,15.0295758 3.64965517,13.9229697 3.59131034,13.2648788 L0.962068966,13.4537273 C0.744827586,15.0474242 0.868965517,17.8565455 1.43193103,18.1622727 C2.24068966,18.601 15.3688966,18.4749091 16.0435862,17.9112424 C16.4892414,17.539303 16.5693103,14.9593333 16.424069,13.3120909 L13.8612414,13.2199697 L13.8612414,13.2199697 Z" id="Shape"></path>
                            <path d="M17.3203448,3.73724242 C17.1204828,3.51327273 15.579931,3.52306061 13.5062069,3.67390909 C13.8128276,2.6450303 14.3006897,0.726606061 13.8302069,0.32530303 C12.5937931,-0.728909091 4.49503448,1.07436364 4.06613793,1.56663636 C3.72786207,1.95469697 3.762,4.03433333 3.79241379,4.89336364 C1.94275862,5.23363636 0.620689655,5.58081818 0.488482759,5.86063636 C0.016137931,6.86015152 -0.319655172,11.9815152 0.488482759,12.6056364 C0.564206897,12.6649394 0.767172414,12.7138788 1.0737931,12.7541818 L3.54662069,12.7046667 C3.48703448,11.6700303 3.52427586,10.5588182 3.81413793,10.2922424 C4.35351724,9.79248485 5.49806897,9.54260606 6.23731034,9.79248485 C6.66,9.93469697 6.75310345,11.3700606 6.66931034,12.6430606 L8.75048276,12.6016061 L10.8707586,12.5601515 C10.7869655,11.4512424 10.8012414,10.1465758 11.1177931,9.85121212 C11.6553103,9.35260606 12.8004828,9.10215152 13.5409655,9.35260606 C13.994069,9.50633333 14.0691724,11.1639394 13.9487586,12.499697 L16.3328276,12.4519091 C16.884,12.3833939 17.2371724,12.309697 17.3191034,12.2331212 C17.9267586,11.6694545 17.9937931,4.48687879 17.3203448,3.73724242 L17.3203448,3.73724242 Z M5.41489655,4.61872727 C5.41427586,4.06081818 5.44655172,3.16206061 5.65075862,2.87763636 C5.95303448,2.45675758 11.6478621,1.49639394 12.0134483,1.80039394 C12.3250345,2.06063636 12.2195172,2.84021212 11.9749655,3.80230303 C9.87082759,3.99748485 7.47496552,4.294 5.41489655,4.61872727 L5.41489655,4.61872727 Z" id="Shape"></path>
                        </g>
                    </g>
                </g>
            </g>
        </g>
    </g>
</svg>