<?xml version="1.0" encoding="UTF-8" standalone="no"?>
<svg width="19px" height="19px" viewBox="0 0 19 19" version="1.1" xmlns="http://www.w3.org/2000/svg" xmlns:xlink="http://www.w3.org/1999/xlink" xmlns:sketch="http://www.bohemiancoding.com/sketch/ns">
    <!-- Generator: Sketch 3.3.3 (12081) - http://www.bohemiancoding.com/sketch -->
    <title>Open 24 hours</title>
    <desc>Created with Sketch.</desc>
    <defs></defs>
    <g id="Company-Page" stroke="none" stroke-width="1" fill="none" fill-rule="evenodd" sketch:type="MSPage">
        <g id="Company-Page-for-Web" sketch:type="MSArtboardGroup" transform="translate(-471.000000, -1000.000000)" fill="#7ED321">
            <g id="Group-Copy-4" sketch:type="MSLayerGroup" transform="translate(315.000000, 833.000000)">
                <g id="Saturday-+-urun-2" transform="translate(4.000000, 167.000000)" sketch:type="MSShapeGroup">
                    <g id="urun-2" transform="translate(152.000000, 0.000000)">
                        <g id="Open-All-day-+-24-hours">
                            <path d="M19,8.72486945 C18.8926422,7.38660656 18.5112702,6.12701942 17.9070436,5.00191743 L16.0722722,6.06190845 L15.7618261,5.52435542 L17.5950472,4.46475196 C16.8292026,3.23539491 15.7905065,2.19361945 14.5626747,1.42313969 L13.4910348,3.265625 L12.9550211,2.95363495 L14.0282112,1.10843668 C12.8957224,0.496471116 11.6256451,0.108905842 10.2753401,0 L10.2753401,2.80403476 L8.72504743,2.80403476 L8.72504743,0 C7.37590519,0.108905842 6.10427758,0.496471116 4.97178875,1.10843668 L6.04691675,2.95363495 L5.51090305,3.265625 L4.43732534,1.42313969 C3.2094935,2.19361945 2.17118495,3.23539491 1.40495278,4.46630222 L3.23817392,5.52435542 L2.92811537,6.06190845 L1.09295637,5.00191743 C0.490667646,6.12701942 0.107357771,7.38660656 0,8.72486945 L2.77812455,8.72486945 L2.77812455,10.2751305 L0,10.2751305 C0.107357771,11.6133934 0.490667646,12.8745308 1.09295637,13.9992453 L2.92811537,12.9380915 L3.23817392,13.4756446 L1.40495278,14.535248 C2.17118495,15.7646051 3.2094935,16.805993 4.43732534,17.5784106 L5.50935275,15.7359253 L6.04536646,16.0475277 L4.97178875,17.8915633 C6.10427758,18.5046916 7.37435489,18.8907066 8.72504743,19 L8.72504743,16.1959652 L10.2753401,16.1959652 L10.2753401,19 C11.6240948,18.8907066 12.8957224,18.5046916 14.0282112,17.8915633 L12.9534708,16.0475277 L13.4894845,15.7359253 L14.5626747,17.5784106 C15.7905065,16.805993 16.8292026,15.7646051 17.5950472,14.535248 L15.7618261,13.4756446 L16.0722722,12.9380915 L17.9070436,13.9992453 C18.5097199,12.8745308 18.8926422,11.6133934 19,10.2751305 L16.2218754,10.2751305 L16.2218754,8.72486945 L19,8.72486945 Z M15.7,11.8955224 C15.7,12.2512438 15.4532338,12.540796 15.1502488,12.540796 C14.8467662,12.540796 14.60199,12.2512438 14.60199,11.8955224 L14.60199,10.0358209 C14.60199,9.81442786 14.5651741,9.63731343 14.4895522,9.50149254 C14.3920398,9.30895522 14.2074627,9.21393035 13.9353234,9.21393035 C13.6537313,9.21393035 13.439801,9.30895522 13.2940299,9.49751244 C13.1482587,9.6880597 13.0746269,9.960199 13.0746269,10.3119403 L13.0746269,11.8955224 C13.0746269,12.2512438 12.8333333,12.538806 12.5383085,12.538806 C12.240796,12.538806 12,12.2512438 12,11.8955224 L12,7.64328358 C12,7.28756219 12.240796,7 12.5383085,7 C12.8333333,7 13.0746269,7.28756219 13.0746269,7.64328358 L13.0746269,8.31791045 C13.0746269,8.67363184 13.160199,8.81542289 13.3094527,8.67363184 C13.4029851,8.58208955 13.5039801,8.5119403 13.6129353,8.46169154 C13.8169154,8.36616915 14.0328358,8.3199005 14.258209,8.3199005 C14.5104478,8.3199005 14.739801,8.36467662 14.9462687,8.45174129 C15.1537313,8.54129353 15.3228856,8.67562189 15.4552239,8.85621891 C15.5696517,9.00945274 15.6378109,9.16915423 15.6631841,9.33034826 C15.6885572,9.49154229 15.7,9.75771144 15.7,10.1253731 L15.7,11.8955224 Z M10.9015432,11.3084843 C10.7369602,11.3084843 10.6035663,11.5757825 10.6035663,11.9039905 C10.6035663,12.2327018 10.3751653,12.5 10.095902,12.5 C9.81471923,12.5 9.58775775,12.2327018 9.58775775,11.9039905 C9.58775775,11.5757825 9.31041369,11.3084843 8.96733238,11.3084843 L8.12042537,11.3084843 C7.77734405,11.3084843 7.5,11.0960553 7.5,10.8342943 C7.5,10.5710232 7.6439502,10.1089145 7.82244845,9.80235219 L9.11752043,7.55674538 C9.29553884,7.24967966 9.70051874,7 10.0210479,7 C10.3430165,7 10.6035663,7.2929709 10.6035663,7.65087864 L10.6035663,9.80587589 C10.6035663,10.1657972 10.7369602,10.4567545 10.9015432,10.4567545 C11.0666061,10.4567545 11.2,10.647538 11.2,10.8836262 C11.2,11.1197144 11.0666061,11.3084843 10.9015432,11.3084843 Z M6.55447753,12.5 L4.087713,12.5 C3.73075355,12.5 3.44019356,12.246989 3.51058696,11.9476592 C3.55352194,11.7643756 3.61592744,11.589559 3.69580648,11.4242054 C3.84957362,11.0586344 4.212524,10.6731414 4.78565609,10.2647378 C5.28340234,9.91062211 5.60491547,9.65561894 5.75119396,9.5022186 C5.97535451,9.26265508 6.08668592,9.00217332 6.08668592,8.71579281 C6.08668592,8.48469619 6.02228344,8.29194965 5.89547547,8.13805125 C5.76667052,7.98664312 5.581451,7.90844879 5.34181389,7.90844879 C5.01381059,7.90844879 4.78965004,8.03096985 4.67282695,8.27451779 C4.63188895,8.3561985 4.60243355,8.46676628 4.58096606,8.60522503 C4.55400688,8.79398714 4.3158675,8.94738749 4.02730448,8.94738749 C3.73874146,8.94738749 3.50459603,8.68292131 3.5689985,8.36765372 C3.60993651,8.15747532 3.67433898,7.97468985 3.756215,7.81929729 C4.04477802,7.27243503 4.55600386,7 5.290891,7 C5.872011,7 6.33431093,7.15937698 6.67779079,7.48062121 C7.02077141,7.80136738 7.19251134,8.22570859 7.19251134,8.755139 C7.19251134,9.15955809 7.0716943,9.51965046 6.82956096,9.83441999 C6.66980289,10.0426062 6.40819904,10.2761931 6.04375093,10.5331884 L5.6109064,10.838495 C5.33981692,11.0292493 5.15659437,11.1692022 5.05524784,11.2548673 C5.00632193,11.2957077 4.959393,11.3425247 4.91845499,11.392828 C4.84806159,11.4745087 5.09418887,11.5527031 5.45064908,11.5527031 L6.55447753,11.5527031 C6.91143698,11.5527031 7.2,11.7643756 7.2,12.0253554 C7.2,12.2878294 6.91143698,12.5 6.55447753,12.5 Z M9.49736573,8.69447322 L8.82204296,9.8601756 C8.65437984,10.148332 8.78935098,10.3818461 9.12327614,10.3818461 L9.19613254,10.3818461 C9.5300577,10.3818461 9.8,10.1119038 9.8,9.77797863 L9.8,8.77480207 C9.8,8.44274502 9.66502885,8.40631682 9.49736573,8.69447322 Z" id="Open-24-hours"></path>
                        </g>
                    </g>
                </g>
            </g>
        </g>
    </g>
</svg>