<?xml version="1.0" encoding="UTF-8" standalone="no"?>
<svg width="12px" height="25px" viewBox="0 0 12 25" version="1.1" xmlns="http://www.w3.org/2000/svg" xmlns:xlink="http://www.w3.org/1999/xlink" xmlns:sketch="http://www.bohemiancoding.com/sketch/ns">
    <!-- Generator: Sketch 3.3.3 (12081) - http://www.bohemiancoding.com/sketch -->
    <title>Password</title>
    <desc>Created with Sketch.</desc>
    <defs></defs>
    <g id="Entrance-Page" stroke="none" stroke-width="1" fill="none" fill-rule="evenodd" sketch:type="MSPage">
        <g sketch:type="MSArtboardGroup" transform="translate(-52.000000, -259.000000)" id="Side-Menu" fill="#C7DDF3">
            <g sketch:type="MSLayerGroup">
                <g id="Password" transform="translate(52.000000, 259.000000)" sketch:type="MSShapeGroup">
                    <path d="M9.7868009,1.37567441 C7.61255848,-0.678871048 4.01331605,-0.400083169 1.74816454,1.9976441 C-0.516986977,4.39612895 -0.590471826,8.00521986 1.5837706,10.0590077 C2.23452817,10.6741593 3.01407363,11.0749168 3.84589181,11.2771896 C3.8307403,13.3430986 3.76255848,22.9029471 3.85725545,23.0824926 C3.96331605,23.2824926 6.21028575,24.2430986 6.44210393,24.2430986 C6.67543727,24.2430986 7.56255848,22.8703714 7.56255848,22.6453714 C7.56255848,22.4196138 6.44210393,21.3324926 6.44210393,21.3324926 C6.44210393,21.3324926 7.1368009,20.7855229 7.1368009,20.5862805 C7.1368009,20.387038 6.44210393,19.8423411 6.44210393,19.8423411 C6.44210393,19.8423411 7.20801302,19.3332502 7.20801302,19.131735 C7.20801302,18.9302199 6.44210393,18.387038 6.44210393,18.387038 C6.44210393,18.387038 7.56255848,17.4029471 7.56255848,17.2135532 C7.56255848,17.0241593 6.44210393,15.8999168 6.44210393,15.8999168 C6.44210393,15.8999168 7.17240696,15.3188562 7.17240696,15.1552199 C7.17240696,14.9893108 6.44210393,14.2673411 6.44210393,14.2673411 L6.44210393,13.2385532 C6.44210393,13.2385532 7.56255848,12.7415835 7.56255848,12.562038 C7.56255848,12.4279471 6.92770999,11.6309774 6.61255848,11.2446138 C7.70649787,10.956735 8.76104333,10.3537047 9.62164939,9.44234107 C11.8875585,7.03855319 11.9610433,3.42946229 9.7868009,1.37567441 L9.7868009,1.37567441 Z M6.85422514,4.63476532 C6.18149787,5.34688653 5.11331605,5.42946229 4.46786151,4.8196138 C3.82240696,4.20976532 3.84437666,3.13931077 4.51634636,2.42718956 C5.18907363,1.71506835 6.25725545,1.63249259 6.90270999,2.24234107 C7.54816454,2.85218956 7.52770999,3.92340168 6.85422514,4.63476532 L6.85422514,4.63476532 Z" id="Shape"></path>
                </g>
            </g>
        </g>
    </g>
</svg>