<?xml version="1.0" encoding="UTF-8" standalone="no"?>
<svg width="30px" height="30px" viewBox="0 0 30 30" version="1.1" xmlns="http://www.w3.org/2000/svg" xmlns:xlink="http://www.w3.org/1999/xlink" xmlns:sketch="http://www.bohemiancoding.com/sketch/ns">
    <!-- Generator: Sketch 3.3.3 (12081) - http://www.bohemiancoding.com/sketch -->
    <title>Play</title>
    <desc>Created with Sketch.</desc>
    <defs></defs>
    <g id="Entrance-Page" stroke="none" stroke-width="1" fill="none" fill-rule="evenodd" sketch:type="MSPage">
        <g sketch:type="MSArtboardGroup" transform="translate(-327.000000, -1445.000000)" id="Watch-The-Video-+-Play" fill="#FFFFFF">
            <g sketch:type="MSLayerGroup" transform="translate(327.000000, 1445.000000)">
                <g id="Play" sketch:type="MSShapeGroup">
                    <path d="M15,0 C6.714375,0 0,6.7153125 0,15 C0,23.28375 6.714375,30 15,30 C23.28375,30 30,23.28375 30,15 C30,6.7153125 23.28375,0 15,0 L15,0 Z M13.981875,23.4375 C13.550625,23.4375 11.210625,21.328125 11.210625,20.8509375 C11.210625,20.371875 18.4171875,14.9990625 18.4171875,14.6296875 C18.4171875,14.259375 11.210625,9.18 11.210625,8.6559375 C11.210625,8.13375 12.61125,6.5625 13.119375,6.5625 C13.6275,6.5625 22.0490625,14.0296875 22.0490625,14.56875 C22.0490625,15.1078125 14.413125,23.4375 13.981875,23.4375 L13.981875,23.4375 Z" id="Shape"></path>
                </g>
            </g>
        </g>
    </g>
</svg>