<?xml version="1.0" encoding="UTF-8" standalone="no"?>
<svg width="20px" height="20px" viewBox="0 0 20 20" version="1.1" xmlns="http://www.w3.org/2000/svg" xmlns:xlink="http://www.w3.org/1999/xlink" xmlns:sketch="http://www.bohemiancoding.com/sketch/ns">
    <!-- Generator: Sketch 3.3.3 (12081) - http://www.bohemiancoding.com/sketch -->
    <title>Search Icon Mouseover</title>
    <desc>Created with Sketch.</desc>
    <defs></defs>
    <g id="Entrance-Page" stroke="none" stroke-width="1" fill="none" fill-rule="evenodd" sketch:type="MSPage">
        <g sketch:type="MSArtboardGroup" transform="translate(-276.000000, -1051.000000)" id="Topline" fill="#55A7F6">
            <g sketch:type="MSLayerGroup" transform="translate(0.000000, 1024.000000)">
                <g id="Search-Icon-Mouseover" transform="translate(276.000000, 27.000000)" sketch:type="MSShapeGroup">
                    <path d="M19.748826,17.1854 L14.9454153,12.238197 C14.6019993,11.8833681 14.1711246,11.7413565 13.9845727,11.9225713 C13.798422,12.1021859 13.3671461,11.9601743 13.0225265,11.6053454 L12.9535224,11.5349397 C15.1034829,8.71591003 14.8952669,4.67958121 12.3140305,2.10617158 C9.49649492,-0.702057192 4.92817978,-0.702057192 2.11224899,2.10617158 C-0.704082996,4.91560044 -0.704082996,9.46917139 2.11224899,12.2770001 C4.73721482,14.8960135 8.88067304,15.0712278 11.7138549,12.8102436 L11.7435427,12.8414461 C12.0869587,13.195875 12.2153385,13.6303104 12.0271818,13.810325 C11.8410311,13.9915398 11.9678062,14.4243751 12.3124257,14.7788039 L17.1126269,19.7276071 C17.4560429,20.082436 18.0249259,20.0920368 18.3803775,19.7480087 L19.7267607,18.449503 C20.0826134,18.105875 20.0918407,17.5402289 19.748826,17.1854 L19.748826,17.1854 Z M10.7281387,10.6972714 C8.78960362,12.6302289 5.63507109,12.6302289 3.69653602,10.6972714 C1.75800096,8.76431397 1.75800096,5.61885773 3.69653602,3.68590027 C5.63507109,1.7529428 8.78960362,1.7529428 10.7281387,3.68590027 C12.6666737,5.61885773 12.6666737,8.76431397 10.7281387,10.6972714 L10.7281387,10.6972714 Z" id="Fill-1"></path>
                </g>
            </g>
        </g>
    </g>
</svg>