<?xml version="1.0" encoding="UTF-8" standalone="no"?>
<svg width="57px" height="60px" viewBox="0 0 57 60" version="1.1" xmlns="http://www.w3.org/2000/svg" xmlns:xlink="http://www.w3.org/1999/xlink" xmlns:sketch="http://www.bohemiancoding.com/sketch/ns">
    <!-- Generator: Sketch 3.3.3 (12081) - http://www.bohemiancoding.com/sketch -->
    <title>Shopping Basket</title>
    <desc>Created with Sketch.</desc>
    <defs></defs>
    <g id="Entrance-Page" stroke="none" stroke-width="1" fill="none" fill-rule="evenodd" sketch:type="MSPage">
        <g sketch:type="MSArtboardGroup" transform="translate(-667.000000, -769.000000)" id="Consumers-+-Businesses" fill="#F3703D">
            <g sketch:type="MSLayerGroup" transform="translate(612.000000, 769.000000)">
                <g id="Shopping-Basket" transform="translate(55.000000, 0.000000)" sketch:type="MSShapeGroup">
                    <path d="M19.8040781,35.7218182 C15.9065156,15.5618182 11.3837344,9.20181818 11.3837344,9.20181818 C11.3837344,9.20181818 4.67817187,11.3727273 0,13.8545455 C0,13.8545455 0.155390625,16.18 1.55939063,17.4218182 C1.55939063,17.4218182 5.37103125,15.8690909 9.82251562,14.8327273 C13.9102031,26.2545455 15.5939062,42.3909091 15.5939062,42.3909091 C44.6007656,38.98 54.1125,42.3909091 54.1125,42.3909091 L55.8272812,35.7218182 C36.9592031,32.62 19.8040781,35.7218182 19.8040781,35.7218182 L19.8040781,35.7218182 Z" id="Shape"></path>
                    <path d="M12.8845848,54.9353544 C14.0061152,57.6740908 17.0447038,58.6130901 19.6714623,57.032668 C22.2982208,55.4522459 23.5184492,51.9508762 22.3969188,49.2121398 C21.2753884,46.4734034 18.2367998,45.5344041 15.6100413,47.1148262 C12.9832828,48.6952482 11.7630544,52.196618 12.8845848,54.9353544 L12.8845848,54.9353544 Z" id="Oval"></path>
                    <path d="M32.9797627,56.9628587 C34.0339966,59.6165155 37.0180304,60.4459128 39.6447889,58.8153694 C42.2715475,57.184826 43.5463306,53.7117955 42.4920967,51.0581387 C41.4378629,48.4044819 38.4538291,47.5750846 35.8270705,49.205628 C33.200312,50.8361714 31.9255289,54.3092019 32.9797627,56.9628587 L32.9797627,56.9628587 Z" id="Oval"></path>
                    <path d="M22.7910937,30.9145455 C23.8545,31.6945455 33.8829375,30.6054545 35.4023437,29.6745455 C36.9235312,28.7418182 36.9235312,17.2654545 35.4023437,15.8690909 C33.8811562,14.4690909 20.2082812,16.18 19.144875,17.4218182 C18.0814687,18.6636364 21.7276875,30.14 22.7910937,30.9145455 L22.7910937,30.9145455 Z" id="Shape"></path>
                    <path d="M41.061375,16.5072727 C39.5027813,17.3618182 38.9969063,28.8309091 40.4504063,30.2963636 C41.9039063,31.7618182 55.6426875,30.6872727 56.7613125,29.5 C57.8799375,28.3054545 54.7449375,16.6727273 53.715375,15.8490909 C52.6875938,15.0290909 42.6199688,15.6527273 41.061375,16.5072727 Z" id="Shape"></path>
                    <path d="M24.7665,12.1490909 C26.1345,12.7690909 47.559375,13.5454545 48.29325,12.1490909 C49.0306875,10.7490909 49.5347813,2.06727273 48.29325,0.361818182 C47.0552813,-1.34545455 24.616875,3.46363636 23.0956875,5.01636364 C21.5762813,6.56363636 23.4002813,11.5272727 24.7665,12.1490909 L24.7665,12.1490909 Z" id="Shape"></path>
                </g>
            </g>
        </g>
    </g>
</svg>