<?xml version="1.0" encoding="UTF-8" standalone="no"?>
<svg width="12px" height="16px" viewBox="0 0 12 16" version="1.1" xmlns="http://www.w3.org/2000/svg" xmlns:xlink="http://www.w3.org/1999/xlink" xmlns:sketch="http://www.bohemiancoding.com/sketch/ns">
    <!-- Generator: Sketch 3.3.3 (12081) - http://www.bohemiancoding.com/sketch -->
    <title>stacked</title>
    <desc>Created with Sketch.</desc>
    <defs></defs>
    <g id="Search-Result-Page" stroke="none" stroke-width="1" fill="none" fill-rule="evenodd" sketch:type="MSPage">
        <g id="stacked" sketch:type="MSLayerGroup">
            <path d="M2.87376,6.84564706 C2.85408,6.83905882 2.83872,6.83341176 2.83344,6.82635294 C2.68704,6.648 2.61552,5.82776471 2.796,5.59764706 C2.97696,5.36752941 8.45136,4.64752941 8.64192,4.92094118 C8.80032,5.14776471 8.82768,6.18352941 8.72256,6.63341176 C10.17456,6.59670588 11.33328,6.57552941 11.74224,6.568 C11.59536,3.552 11.3664,0.858352941 11.13696,0.633411765 C10.60512,0.112470588 1.3656,0.953882353 0.83376,1.55529412 C0.6072,1.81176471 0.49968,4.26164706 0.4824,7.02211765 C1.07424,6.95529412 1.91376,6.89647059 2.87376,6.84564706 L2.87376,6.84564706 Z" id="Shape" fill="#004281" sketch:type="MSShapeGroup"></path>
            <path d="M11.90064,11.8931765 C11.89056,10.4381176 11.83968,8.68705882 11.76288,7.00141176 C9.73008,6.96235294 2.58192,7.45647059 0.48,7.60564706 C0.4776,8.99811765 0.49728,10.4348235 0.5352,11.6828235 C1.10016,11.6550588 1.8768,11.6461176 2.76384,11.6498824 C2.67024,11.3472941 2.64768,10.76 2.796,10.5708235 C2.97696,10.3411765 8.45136,9.62023529 8.64192,9.89411765 C8.82864,10.1585882 8.832,11.5294118 8.65776,11.7764706 C10.07568,11.8221176 11.27664,11.8687059 11.90064,11.8931765 L11.90064,11.8931765 Z" id="Shape" fill="#E7B121" sketch:type="MSShapeGroup"></path>
            <path d="M0.5544,12.2654118 C0.61584,13.92 0.71232,15.1322353 0.83376,15.2625882 C0.94416,15.3821176 2.83968,15.496 2.83344,15.488 C2.68704,15.3096471 2.61552,14.4898824 2.796,14.2597647 C2.97696,14.0305882 8.45136,13.3096471 8.64192,13.5830588 C8.83296,13.8555294 8.74992,15.3647059 8.5584,15.5468235 C8.54352,15.5604706 11.50704,15.5477647 11.70816,15.2625882 C11.80752,15.1218824 11.90352,13.976 11.9016,12.3214118 C9.51072,12.1858824 2.73312,12.2437647 0.5544,12.2654118 L0.5544,12.2654118 Z" id="Shape" fill="#F3703D" sketch:type="MSShapeGroup"></path>
        </g>
    </g>
</svg>