<?xml version="1.0" encoding="UTF-8" standalone="no"?>
<svg width="40px" height="40px" viewBox="0 0 40 40" version="1.1" xmlns="http://www.w3.org/2000/svg" xmlns:xlink="http://www.w3.org/1999/xlink" xmlns:sketch="http://www.bohemiancoding.com/sketch/ns">
    <!-- Generator: Sketch 3.3.3 (12081) - http://www.bohemiancoding.com/sketch -->
    <title>website round</title>
    <desc>Created with Sketch.</desc>
    <defs></defs>
    <g id="Company-Page" stroke="none" stroke-width="1" fill="none" fill-rule="evenodd" sketch:type="MSPage">
        <g id="Company-Page-for-Web" sketch:type="MSArtboardGroup" transform="translate(-718.000000, -233.000000)">
            <g id="Company-Full-Page,-Company-Info" sketch:type="MSLayerGroup" transform="translate(199.000000, 105.000000)">
                <g id="actions" transform="translate(310.000000, 128.000000)" sketch:type="MSShapeGroup">
                    <g id="Website" transform="translate(209.000000, 0.000000)">
                        <g id="website-round">
                            <ellipse id="Oval-6" fill="#096ECF" cx="20" cy="19.9561404" rx="20" ry="19.9561404"></ellipse>
                            <path d="M28.5222352,12.3783985 C27.6058738,11.179048 12.7978334,13.1461525 11.8314068,13.9133762 C10.8649802,14.6806 10.7119721,24.273813 11.525953,24.753129 C11.8134059,24.9227984 13.8148877,25.0028611 16.3282718,24.9964985 C16.2410797,25.2844063 16.1010097,25.6221544 15.8765602,25.90476 C15.4332866,26.4630783 14.5641777,26.7398515 14.5281758,26.8649826 C14.4516717,27.1285004 14.5664278,27.8480046 14.7824393,27.9678336 C14.9990134,28.0881929 23.4206504,27.8474744 23.6372245,27.631146 C23.853236,27.4158779 24.0698101,26.6719837 23.8408603,26.528295 C23.4802786,26.3024226 22.0008246,26.2695491 21.5198614,24.8803811 C24.6885931,24.7441153 27.4849298,24.4927926 27.9113276,24.1311847 C28.9295069,23.266401 29.4374716,13.577749 28.5222352,12.3783985 L28.5222352,12.3783985 Z M20.5736859,23.5601412 C20.3509241,24.1608768 19.7062646,24.4943832 19.1352967,24.3050958 C18.5648912,24.1163386 18.2847513,23.4763669 18.5086382,22.8766917 C18.7325252,22.2754258 19.3766221,21.9419194 19.9470275,22.1312068 C20.5163079,22.319964 20.7970104,22.9599357 20.5736859,23.5601412 L20.5736859,23.5601412 Z M26.8430831,20.4366338 C26.0802924,21.1089488 13.0014693,21.7308931 12.5941975,21.3968565 C12.1869258,21.0601688 12.4923796,15.7362617 12.8484611,15.2086959 C13.2051051,14.6811302 26.7924554,13.1461525 27.1997271,13.7696874 C27.6058738,14.3932224 27.6058738,19.7653793 26.8430831,20.4366338 L26.8430831,20.4366338 Z" id="Shape-2" fill="#FFFFFF"></path>
                        </g>
                    </g>
                </g>
            </g>
        </g>
    </g>
</svg>